<?xml version="1.0" standalone="no"?>
<!DOCTYPE svg PUBLIC "-//W3C//DTD SVG 20010904//EN"
 "http://www.w3.org/TR/2001/REC-SVG-20010904/DTD/svg10.dtd">
<svg version="1.0" xmlns="http://www.w3.org/2000/svg"
 width="1024.000000pt" height="576.000000pt" viewBox="0 0 1024.000000 576.000000"
 preserveAspectRatio="xMidYMid meet">

<g transform="translate(0.000000,576.000000) scale(0.100000,-0.100000)"
fill="#000000" stroke="none">
<path d="M0 2880 l0 -2880 5120 0 5120 0 0 2880 0 2880 -3894 0 -3894 0 -91
-57 c-50 -32 -156 -100 -235 -151 l-145 -93 -88 49 c-48 27 -104 58 -123 69
-19 11 -87 48 -150 83 -63 35 -127 71 -142 81 -25 18 -61 19 -752 19 l-726 0
0 -2880z m3414 2335 c-4 -8 -13 -15 -21 -15 -13 0 -13 3 -3 15 7 8 16 15 21
15 5 0 6 -7 3 -15z m626 -11 l25 -15 -25 7 c-14 4 -49 8 -78 8 -45 1 -50 3
-35 14 21 15 74 8 113 -14z m-350 -13 c0 -13 -9 -17 -52 -25 -30 -5 -38 -4
-38 8 0 13 20 20 73 25 9 0 17 -3 17 -8z m-390 -9 c0 -13 -12 -22 -22 -16 -10
6 -1 24 13 24 5 0 9 -4 9 -8z m820 -28 c0 -2 -9 0 -20 6 -11 6 -20 13 -20 16
0 2 9 0 20 -6 11 -6 20 -13 20 -16z m-896 7 c3 -4 -17 -22 -44 -39 -47 -29
-50 -34 -50 -72 0 -29 -4 -40 -12 -37 -22 7 2 107 26 107 6 0 25 11 41 25 35
28 32 27 39 16z m1029 -78 c26 -19 47 -39 47 -44 0 -12 -82 45 -107 74 -22 25
-7 17 60 -30z m363 -18 c-23 -17 -36 -19 -36 -6 0 11 18 19 40 20 11 0 10 -3
-4 -14z m-1506 -95 c0 -5 -4 -10 -10 -10 -5 0 -10 5 -10 10 0 6 5 10 10 10 6
0 10 -4 10 -10z m1290 -4 c0 -2 -7 -6 -15 -10 -8 -3 -15 -1 -15 4 0 6 7 10 15
10 8 0 15 -2 15 -4z m3538 -34 c2 -7 -3 -12 -12 -12 -9 0 -16 7 -16 16 0 17
22 14 28 -4z m-3244 -217 c-7 -16 -24 -21 -24 -6 0 8 7 13 27 20 1 1 0 -6 -3
-14z m2956 -29 c0 -3 -4 -8 -10 -11 -5 -3 -10 -1 -10 4 0 6 5 11 10 11 6 0 10
-2 10 -4z m-4926 -160 c-6 -16 -24 -23 -24 -8 0 10 22 33 27 28 2 -2 1 -11 -3
-20z m4716 -346 c0 -5 -4 -10 -10 -10 -5 0 -10 5 -10 10 0 6 5 10 10 10 6 0
10 -4 10 -10z m-2453 -54 c4 -7 24 -16 43 -19 106 -16 160 -32 158 -47 -4 -18
-56 -26 -71 -11 -14 14 -47 14 -47 1 0 -6 11 -16 25 -22 26 -12 29 -35 4 -31
-8 1 -37 10 -66 20 -44 14 -53 22 -59 46 -3 17 -14 32 -25 34 -19 5 -25 24
-12 36 11 12 42 8 50 -7z m-96 -51 c0 -6 -10 -12 -23 -13 -19 -4 -20 -2 -9 12
15 17 33 18 32 1z m444 -50 c22 -13 35 -25 28 -25 -6 0 -14 4 -18 9 -3 5 -19
12 -35 16 -17 4 -30 11 -30 16 0 14 12 11 55 -16z m278 -10 c-1 -5 -18 -13
-37 -16 -20 -3 -54 -14 -76 -24 -22 -10 -43 -15 -47 -12 -10 11 17 35 48 42
16 4 31 11 35 16 8 13 80 7 77 -6z m115 -32 c-10 -2 -26 -2 -35 0 -10 3 -2 5
17 5 19 0 27 -2 18 -5z m1151 -361 c27 -2 20 -17 -7 -17 -12 0 -16 -7 -15 -22
3 -23 3 -23 -17 -3 -22 22 -45 16 -104 -24 l-29 -20 5 22 c9 32 -7 27 -31 -10
l-22 -33 7 30 c4 17 14 38 22 48 16 18 58 24 47 7 -9 -15 1 -12 34 8 27 16 41
18 110 14z m-425 -84 c11 -10 16 -18 12 -18 -14 0 -66 41 -66 52 0 10 14 1 54
-34z m386 11 c0 -6 -4 -7 -10 -4 -5 3 -10 11 -10 16 0 6 5 7 10 4 6 -3 10 -11
10 -16z m-10 -24 c0 -1 -6 -8 -14 -15 -12 -9 -15 -8 -13 8 0 12 6 18 14 15 7
-3 13 -6 13 -8z m-3010 -115 c0 -5 -2 -10 -4 -10 -3 0 -8 5 -11 10 -3 6 -1 10
4 10 6 0 11 -4 11 -10z m-45 -40 c3 -5 1 -10 -4 -10 -6 0 -11 5 -11 10 0 6 2
10 4 10 3 0 8 -4 11 -10z m-60 -14 c-11 -8 -24 -12 -29 -8 -5 3 -1 9 10 13 31
12 39 10 19 -5z m35 -20 c-19 -17 -74 -31 -65 -16 3 5 15 10 25 10 10 0 22 5
25 10 3 6 11 10 18 10 7 0 6 -5 -3 -14z m-80 -6 c0 -5 -5 -10 -11 -10 -5 0 -7
5 -4 10 3 6 8 10 11 10 2 0 4 -4 4 -10z m4165 -1133 c40 -23 52 -46 54 -105 1
-26 -4 -35 -19 -39 -26 -7 -28 -53 -2 -53 39 0 62 13 62 33 0 21 0 21 16 -1
15 -21 21 -22 188 -22 120 0 176 -4 184 -12 9 -9 12 -4 13 22 2 31 3 32 6 8 2
-16 9 -28 14 -28 5 0 9 -7 9 -16 0 -13 11 -15 58 -14 83 3 116 1 108 -7 -4 -5
-50 -8 -102 -8 -59 -1 -98 -5 -106 -13 -7 -7 -41 -12 -83 -12 -65 0 -74 -2
-98 -28 -24 -25 -26 -32 -17 -62 13 -45 13 -50 -4 -50 -8 0 -18 -18 -24 -43
-8 -32 -21 -50 -48 -69 -34 -25 -39 -25 -74 -13 -20 7 -55 22 -78 34 -37 19
-41 19 -44 3 -2 -9 5 -25 16 -36 16 -16 18 -28 12 -94 -9 -91 -18 -112 -52
-112 -24 0 -25 -3 -19 -32 4 -18 17 -44 29 -58 33 -36 58 -83 101 -182 l37
-88 -7 -122 c-3 -68 -9 -151 -12 -185 -5 -56 -3 -64 23 -97 16 -20 46 -43 67
-51 27 -11 37 -21 35 -33 -3 -17 -37 -19 -194 -12 -63 3 -66 8 -49 75 14 54
14 66 -1 144 -16 82 -19 128 -12 216 3 37 1 40 -23 43 -20 2 -38 20 -70 68
-25 36 -54 67 -66 70 -12 3 -25 15 -28 25 -6 17 -9 16 -29 -13 -25 -38 -56
-111 -56 -134 0 -9 -18 -39 -40 -66 -26 -32 -40 -61 -40 -79 0 -37 -48 -156
-77 -192 -26 -32 -35 -73 -31 -142 l3 -50 -34 -3 c-62 -6 -81 4 -81 44 0 20 7
64 16 97 8 34 13 72 11 86 -3 15 3 46 13 71 10 25 21 57 24 72 3 15 21 53 40
85 28 48 35 72 41 143 8 101 8 102 1 161 -4 35 -2 50 9 59 12 10 14 28 9 89
-6 65 -4 80 10 94 16 16 16 17 -4 17 -28 0 -30 12 -22 100 l7 75 33 3 32 3 0
67 c0 122 59 207 138 200 l37 -3 -3 50 c-3 39 2 57 20 85 43 63 104 76 173 37z
m889 -758 c44 -12 96 -61 96 -90 0 -18 -12 -19 -265 -19 l-265 0 0 -180 0
-180 205 0 205 0 0 65 0 65 -110 0 c-125 0 -160 11 -185 60 -8 16 -15 31 -15
35 0 3 99 5 220 5 l220 0 0 -116 c0 -132 -13 -174 -64 -205 -28 -17 -54 -19
-271 -19 -341 0 -335 -5 -335 290 0 131 4 190 14 214 14 34 56 70 91 79 41 10
421 7 459 -4z m758 1 c20 -6 50 -26 68 -46 l31 -36 -3 -215 -3 -215 -37 -34
-38 -34 -230 0 c-261 0 -276 3 -310 70 -18 35 -20 59 -20 222 0 215 7 239 80
276 41 20 57 22 235 22 104 0 207 -5 227 -10z m-3178 -14 c37 -16 76 -64 76
-95 0 -21 -3 -21 -240 -21 l-240 0 2 -162 3 -163 239 -2 c131 -1 240 -4 242
-6 2 -2 -6 -23 -19 -47 -38 -75 -58 -80 -302 -80 -231 0 -257 5 -299 63 -19
26 -21 44 -24 220 -3 216 3 242 67 284 33 22 42 23 248 23 160 0 222 -4 247
-14z m761 0 c35 -15 75 -67 75 -98 0 -17 -19 -18 -250 -18 l-250 0 0 -50 0
-50 208 0 c188 0 210 -2 239 -20 54 -33 68 -64 68 -155 0 -94 -20 -140 -75
-167 -30 -16 -65 -18 -253 -18 -242 0 -274 7 -309 68 -38 64 -44 62 237 62
l255 0 0 49 0 50 -209 3 c-229 3 -235 5 -284 71 -27 35 -29 166 -4 214 34 65
66 72 305 73 163 0 221 -3 247 -14z m2582 -43 c-3 -10 -5 -2 -5 17 0 19 2 27
5 18 2 -10 2 -26 0 -35z m44 6 c-9 -23 -10 -22 -10 11 -1 23 2 31 9 24 7 -7 7
-19 1 -35z m58 -4 c0 -5 -3 -3 -9 5 -8 12 -10 12 -16 -3 -6 -17 -24 -14 -24 4
0 6 4 8 9 4 5 -3 13 5 17 17 7 22 7 22 15 3 4 -11 8 -24 8 -30z m-5481 -904
c18 -22 28 -42 23 -45 -4 -3 -23 15 -40 39 -40 55 -26 60 17 6z m79 -127 c-9
-9 -28 6 -21 18 4 6 10 6 17 -1 6 -6 8 -13 4 -17z m1053 16 c0 -5 -2 -10 -4
-10 -3 0 -8 5 -11 10 -3 6 -1 10 4 10 6 0 11 -4 11 -10z m-1941 -226 c12 -10
-11 -15 -44 -8 -25 4 -33 9 -24 15 12 7 57 2 68 -7z m1366 -44 c22 -11 31 -18
20 -16 -11 3 -46 8 -77 12 -32 3 -58 10 -58 15 0 16 74 9 115 -11z m-280 -70
c3 -6 -1 -7 -9 -4 -18 7 -21 14 -7 14 6 0 13 -4 16 -10z"/>
<path d="M5034 4060 c0 -13 4 -16 10 -10 7 7 7 13 0 20 -6 6 -10 3 -10 -10z"/>
<path d="M7997 1889 c-11 -12 -16 -28 -12 -40 9 -27 20 -24 45 11 33 46 5 70
-33 29z"/>
<path d="M9070 1150 l0 -190 193 2 192 3 0 185 0 185 -192 3 -193 2 0 -190z"/>
</g>
</svg>
